<svg xmlns="http://www.w3.org/2000/svg" width="12" height="12" fill="none" viewBox="0 0 12 12">
  <g clip-path="url(#a)">
    <path fill="#070707" fill-rule="evenodd" d="M5.3 8v3.525c0 .262.213.475.475.475h.45a.475.475 0 0 0 .475-.475V8.487c0-.126.05-.247.14-.336l1.31-1.312a.478.478 0 0 1 .337-.139h3.038A.475.475 0 0 0 12 6.225v-.45a.475.475 0 0 0-.475-.475H7.907a.475.475 0 0 0-.336.14l-.066.065-2 2-.066.066a.475.475 0 0 0-.139.336V8Zm1.4-4V.475A.475.475 0 0 0 6.225 0h-.45A.475.475 0 0 0 5.3.475v3.038c0 .126-.05.247-.14.336L3.85 5.161a.478.478 0 0 1-.337.139H.475A.475.475 0 0 0 0 5.775v.45c0 .262.213.475.475.475h3.618c.126 0 .247-.05.336-.14l.066-.065 2-2 .066-.066a.475.475 0 0 0 .139-.336V4Z" clip-rule="evenodd"/>
  </g>
  <defs>
    <clipPath id="a">
      <path fill="#fff" d="M0 0h12v12H0z"/>
    </clipPath>
  </defs>
</svg>
