<svg width="62" height="60" fill="none" xmlns="http://www.w3.org/2000/svg"><path d="m47.904 1.23 12.862 12.84a2.5 2.5 0 0 1 .734 1.769v23.998a2.5 2.5 0 0 1-.734 1.77L43.572 58.768a2.5 2.5 0 0 1-1.766.731H13.154a2.5 2.5 0 0 1-1.766-.73L1.234 48.632a2.5 2.5 0 0 1-.734-1.77V15.84c0-.664.264-1.3.734-1.77L14.096 1.232A2.5 2.5 0 0 1 15.862.5h30.276a2.5 2.5 0 0 1 1.766.73Z" fill="#FFFF82" stroke="url(#a)"/><defs><linearGradient id="a" x1="31" y1="0" x2="31" y2="60" gradientUnits="userSpaceOnUse"><stop stop-color="#FFEBB0"/><stop offset="1" stop-color="#998D6A" stop-opacity="0"/></linearGradient></defs></svg>