<svg width="236" height="66" fill="none" xmlns="http://www.w3.org/2000/svg"><path d="m220.723 1.511 13.761 13.737a3.457 3.457 0 0 1 1.016 2.448v25.85c0 .92-.365 1.8-1.016 2.45l-18.526 18.493a3.46 3.46 0 0 1-2.444 1.011H14.743a3.46 3.46 0 0 1-2.445-1.011L1.516 53.725A3.46 3.46 0 0 1 .5 51.277v-33.58c0-.92.365-1.8 1.016-2.45l13.76-13.736A3.46 3.46 0 0 1 17.722.5H218.28c.916 0 1.796.364 2.444 1.011Z" fill="url(#a)" stroke="url(#b)"/><defs><linearGradient id="a" x1="118" y1="65" x2="118" y2="1" gradientUnits="userSpaceOnUse"><stop stop-color="#FFEBB0" stop-opacity=".06"/><stop offset="1" stop-color="#fff" stop-opacity="0"/></linearGradient><linearGradient id="b" x1="118" y1="0" x2="118" y2="66" gradientUnits="userSpaceOnUse"><stop stop-color="#FFEBB0"/><stop offset="1" stop-color="#998D6A" stop-opacity="0"/></linearGradient></defs></svg>