<svg width="33" height="32" fill="none" xmlns="http://www.w3.org/2000/svg"><path d="m25.605.785 6.61 6.612c.323.322.504.76.504 1.215v12.47c0 .455-.181.892-.504 1.215L23.3 31.215c-.322.323-.76.504-1.215.504H7.169c-.455 0-.893-.181-1.215-.504l-5.17-5.17a1.719 1.719 0 0 1-.503-1.216V8.612c0-.456.181-.893.504-1.215L7.395.785C7.717.462 8.155.28 8.611.28h15.778c.456 0 .894.181 1.216.504Z" fill="#FFFF82" stroke="url(#a)" stroke-width=".563"/><defs><linearGradient id="a" x1="16.5" y1="0" x2="16.5" y2="32" gradientUnits="userSpaceOnUse"><stop stop-color="#FFEBB0"/><stop offset="1" stop-color="#998D6A" stop-opacity="0"/></linearGradient></defs></svg>