<svg xmlns="http://www.w3.org/2000/svg" width="36" height="36" fill="none" viewBox="0 0 36 36">
  <path fill="#FFC" d="M33.675 21.33C35.225 22.878 36 24.749 36 26.945V36h-5.7v-8.981c0-.699-.225-1.273-.675-1.722L10.65 6.362c-.45-.45-1.025-.674-1.725-.674H0V0h9c2.2 0 4.075.773 5.625 2.32l3.45 3.443V.075H36v5.688H18.075l15.6 15.568ZM.6 33.307c-.15.25-.225.524-.225.823v.224c0 .25.075.5.225.749.15.2.35.3.6.3.1 0 .225-.026.375-.076.1-.05.175-.1.225-.15v-.673h-.675v-.3h1.05v1.049a.72.72 0 0 1-.375.299c-.2.1-.4.15-.6.15-.25 0-.475-.05-.675-.15a1.998 1.998 0 0 1-.375-.524c-.1-.2-.15-.424-.15-.674v-.224c0-.4.1-.724.3-.973.2-.25.475-.374.825-.374.25 0 .5.075.75.224.2.15.3.35.3.599H1.8c0-.15-.075-.274-.225-.374-.1-.1-.25-.15-.45-.15-.25 0-.425.075-.525.225Zm3.675 2.62h-1.8v-.3h1.8v.3ZM5.4 32.781c.25 0 .475.1.675.3.15.249.225.548.225.897v.45c0 .349-.075.648-.225.897-.1.1-.225.2-.375.3-.1.05-.2.075-.3.075-.3 0-.525-.1-.675-.3-.2-.3-.275-.599-.225-.898v-.524c-.05-.3.025-.599.225-.898.15-.25.375-.35.675-.3Zm.525 1.721v-.524c0-.25-.05-.474-.15-.673a.505.505 0 0 0-.45-.225c-.15 0-.275.075-.375.225-.1.2-.125.399-.075.598v.6c-.05.249-.025.473.075.673.1.15.225.224.375.224.2 0 .35-.075.45-.224.1-.2.15-.424.15-.674Zm2.025 0-.825.823H8.55v.3h-1.8V35.4l.975-1.122c.1-.1.2-.225.3-.375.05-.1.075-.2.075-.299a.51.51 0 0 0-.525-.524.51.51 0 0 0-.375.15c-.1.1-.15.25-.15.449h-.375c0-.25.075-.474.225-.674.2-.15.425-.224.675-.224.25 0 .475.075.675.224.15.15.225.325.225.524-.05.4-.225.724-.525.973Zm1.875-1.721c.3 0 .525.1.675.3.15.249.225.548.225.897v.45c0 .349-.075.648-.225.897a.737.737 0 0 1-.675.375c-.25 0-.475-.1-.675-.3a1.99 1.99 0 0 1-.225-.898v-.524c0-.3.075-.599.225-.898.15-.25.375-.35.675-.3Zm.525 1.721v-.524c.05-.25.025-.474-.075-.673a.505.505 0 0 0-.45-.225c-.15 0-.275.075-.375.225-.1.2-.15.399-.15.598v.6c0 .249.05.473.15.673.1.15.225.224.375.224s.275-.075.375-.224c.1-.2.15-.424.15-.674Z"/>
</svg>
