<svg xmlns="http://www.w3.org/2000/svg" width="499" height="68" fill="none" viewBox="0 0 499 68">
  <g clip-path="url(#a)">
    <path fill="#070707" fill-rule="evenodd" d="M2 0a2 2 0 0 0-2 2v16.172a2 2 0 0 0 .586 1.414l2.828 2.828A2 2 0 0 1 4 23.828v20.344a2 2 0 0 1-.586 1.414L.586 48.414A2 2 0 0 0 0 49.828V66a2 2 0 0 0 2 2h495a2 2 0 0 0 2-2V49.828a2 2 0 0 0-.586-1.414l-2.828-2.828a2 2 0 0 1-.586-1.414V23.828a2 2 0 0 1 .586-1.414l2.828-2.828a2 2 0 0 0 .586-1.414V2a2 2 0 0 0-2-2H2Z" clip-rule="evenodd"/>
    <path fill="url(#b)" stroke="url(#c)" d="M2.5 4A1.5 1.5 0 0 1 4 2.5h491a1.5 1.5 0 0 1 1.5 1.5v14.172a1.5 1.5 0 0 1-.439 1.06l-2.829 2.829a2.499 2.499 0 0 0-.732 1.767v20.344c0 .663.263 1.299.732 1.767l2.829 2.829a1.5 1.5 0 0 1 .439 1.06V64a1.5 1.5 0 0 1-1.5 1.5H4A1.5 1.5 0 0 1 2.5 64V49.828c0-.397.158-.779.44-1.06l2.828-2.829a2.5 2.5 0 0 0 .732-1.767V23.828a2.5 2.5 0 0 0-.732-1.767l-2.829-2.829a1.5 1.5 0 0 1-.439-1.06V4Z"/>
  </g>
  <defs>
    <linearGradient id="b" x1="249.5" x2="249.5" y1="65.03" y2="2.97" gradientUnits="userSpaceOnUse">
      <stop stop-color="#FFEBB0" stop-opacity=".06"/>
      <stop offset="1" stop-color="#fff" stop-opacity="0"/>
    </linearGradient>
    <linearGradient id="c" x1="249.5" x2="249.5" y1="2" y2="66" gradientUnits="userSpaceOnUse">
      <stop stop-color="#FFEBB0"/>
      <stop offset="1" stop-color="#998D6A" stop-opacity="0"/>
    </linearGradient>
    <clipPath id="a">
      <path fill="#fff" d="M0 0h499v68H0z"/>
    </clipPath>
  </defs>
</svg>
