<svg xmlns="http://www.w3.org/2000/svg" width="36" height="36" fill="none" viewBox="0 0 36 36">
  <g clip-path="url(#a)">
    <path fill="#FFC" d="M28.05 15.15c2.2 0 4.075.775 5.625 2.325C35.225 19.025 36 20.9 36 23.1v4.95c0 2.2-.775 4.075-2.325 5.625C32.125 35.225 30.25 36 28.05 36H0v-5.7h27.9c.7 0 1.275-.225 1.725-.675.45-.45.675-1.025.675-1.725v-4.65c0-.7-.225-1.275-.675-1.725-.45-.45-1.025-.675-1.725-.675H7.95c-2.2 0-4.075-.775-5.625-2.325C.775 16.975 0 15.1 0 12.9V7.95c0-2.2.775-4.075 2.325-5.625C3.875.775 5.75 0 7.95 0H18v5.7H8.1c-.7 0-1.275.225-1.725.675C5.925 6.825 5.7 7.4 5.7 8.1v4.65c0 .7.225 1.275.675 1.725.45.45 1.025.675 1.725.675h19.95ZM23.325 4.275c-.25 0-.475-.05-.675-.15-.15-.1-.275-.25-.375-.45-.1-.25-.15-.5-.15-.75V2.7c-.05-.35.05-.675.3-.975.2-.25.475-.375.825-.375.25 0 .475.075.675.225.2.2.325.425.375.675h-.375c0-.2-.075-.35-.225-.45-.15-.1-.3-.15-.45-.15-.25 0-.45.1-.6.3-.1.25-.15.5-.15.75v.225c0 .3.075.55.225.75a.713.713 0 0 0 .9.225c.1 0 .2-.05.3-.15v-.6h-.675v-.3h1.05v.975c-.1.15-.225.25-.375.3-.2.1-.4.15-.6.15ZM26.4 4.5h-1.8v-.3h1.8v.3Zm1.125-.225c-.3 0-.525-.1-.675-.3-.2-.3-.275-.6-.225-.9v-.45c-.05-.35 0-.675.15-.975.2-.2.425-.3.675-.3.3 0 .525.1.675.3.2.3.275.6.225.9V3c.05.35 0 .675-.15.975-.2.2-.425.3-.675.3Zm-.6-1.8v.6c0 .25.05.475.15.675.1.15.225.225.375.225.2 0 .35-.075.45-.225.1-.2.15-.4.15-.6v-.6c0-.25-.05-.475-.15-.675a.505.505 0 0 0-.45-.225c-.15 0-.275.075-.375.225-.1.2-.15.4-.15.6Zm2.7 1.725V1.875l-.675.225v-.3l.975-.375H30V4.2h-.375Zm2.175-.9c-.15 0-.3-.05-.45-.15-.1-.1-.175-.2-.225-.3a1.662 1.662 0 0 1-.075-.525c0-.15.025-.325.075-.525.05-.1.15-.2.3-.3.15-.1.3-.15.45-.15.3 0 .525.1.675.3.2.3.275.6.225.9v.075c.05.45-.05.85-.3 1.2-.25.3-.575.425-.975.375h-.075v-.3h.075c.25.05.475-.025.675-.225.2-.2.3-.425.3-.675-.1.1-.2.175-.3.225a.835.835 0 0 1-.375.075Zm-.3-1.425c-.1.15-.15.3-.15.45 0 .2.05.35.15.45.1.15.225.225.375.225s.275-.025.375-.075c.1-.1.175-.2.225-.3v-.15c0-.2-.075-.4-.225-.6-.05-.15-.175-.225-.375-.225-.15 0-.275.075-.375.225Z"/>
  </g>
  <defs>
    <clipPath id="a">
      <path fill="#fff" d="M0 0h36v36H0z"/>
    </clipPath>
  </defs>
</svg>
