<svg xmlns="http://www.w3.org/2000/svg" width="453" height="225" fill="none" viewBox="0 0 453 225">
  <g clip-path="url(#a)">
    <g filter="url(#b)">
      <path fill="#fff" fill-opacity=".3" d="M451.538 81.63A5 5 0 0 0 453 78.098V9.882a5 5 0 0 0-1.462-3.533l-4.874-4.882A5 5 0 0 0 443.126 0H299.072a5 5 0 0 0-3.537 1.466l-2.071 2.072a4.998 4.998 0 0 1-3.535 1.466l-126.847.03a5 5 0 0 1-3.549-1.477l-2.066-2.08A5.002 5.002 0 0 0 153.919 0H9.874a5 5 0 0 0-3.538 1.467L1.462 6.35A5 5 0 0 0 0 9.882v68.215a5 5 0 0 0 1.462 3.533l3.173 3.178a5 5 0 0 1 1.461 3.548l-.141 48.679a5 5 0 0 1-1.462 3.518l-3.031 3.036A5 5 0 0 0 0 147.122v67.996c0 1.325.526 2.595 1.462 3.533l4.874 4.882A5.001 5.001 0 0 0 9.874 225H153.93a5 5 0 0 0 3.535-1.464l2.072-2.072a5 5 0 0 1 3.535-1.464H294.93a5 5 0 0 1 3.535 1.464l2.072 2.072a5 5 0 0 0 3.535 1.464h138.983c1.37 0 2.679-.562 3.623-1.555l4.946-5.201a4.998 4.998 0 0 0 1.377-3.445v-67.677a5 5 0 0 0-1.462-3.533l-3.067-3.072a5.006 5.006 0 0 1-1.462-3.543l.103-48.852a5.003 5.003 0 0 1 1.462-3.523l2.964-2.969Z"/>
    </g>
    <path fill="url(#c)" stroke="url(#d)" d="M452.5 9.882v68.215a4.498 4.498 0 0 1-1.316 3.18l-2.964 2.969a5.499 5.499 0 0 0-1.608 3.874l-.103 48.853a5.503 5.503 0 0 0 1.608 3.898l3.067 3.071a4.5 4.5 0 0 1 1.316 3.18v67.677a4.5 4.5 0 0 1-1.239 3.1l-4.946 5.202a4.502 4.502 0 0 1-3.261 1.399H304.071a4.5 4.5 0 0 1-3.182-1.318l-2.071-2.071a5.496 5.496 0 0 0-3.889-1.611H163.066a5.502 5.502 0 0 0-3.893 1.614l-2.096 2.099a4.499 4.499 0 0 1-3.185 1.321L9.874 224.5a4.499 4.499 0 0 1-3.184-1.32l-4.874-4.882a4.502 4.502 0 0 1-1.316-3.18v-67.996a4.5 4.5 0 0 1 1.316-3.18l3.03-3.036a5.499 5.499 0 0 0 1.609-3.87l.141-48.679a5.5 5.5 0 0 0-1.607-3.902l-3.173-3.178A4.5 4.5 0 0 1 .5 78.097V9.882a4.5 4.5 0 0 1 1.316-3.18L6.69 1.82A4.5 4.5 0 0 1 9.874.5H153.92a4.5 4.5 0 0 1 3.193 1.329l2.066 2.08a5.5 5.5 0 0 0 3.904 1.625l126.847-.03a5.5 5.5 0 0 0 3.889-1.612l2.071-2.073A4.5 4.5 0 0 1 299.072.5h144.054a4.5 4.5 0 0 1 3.184 1.32l4.874 4.882a4.498 4.498 0 0 1 1.316 3.18Z"/>
  </g>
  <defs>
    <linearGradient id="c" x1="6.864" x2="446.136" y1="112.5" y2="112.5" gradientUnits="userSpaceOnUse">
      <stop stop-color="#FFEBB0" stop-opacity=".06"/>
      <stop offset="1" stop-color="#fff" stop-opacity="0"/>
    </linearGradient>
    <linearGradient id="d" x1="226.5" x2="226.5" y1="0" y2="225" gradientUnits="userSpaceOnUse">
      <stop stop-color="#FEF6F1"/>
      <stop offset="1" stop-color="#fff" stop-opacity="0"/>
    </linearGradient>
    <clipPath id="a">
      <path fill="#fff" d="M0 0h453v225H0z"/>
    </clipPath>
    <filter id="b" width="513" height="285" x="-30" y="-30" color-interpolation-filters="sRGB" filterUnits="userSpaceOnUse">
      <feFlood flood-opacity="0" result="BackgroundImageFix"/>
      <feGaussianBlur in="BackgroundImageFix" stdDeviation="15"/>
      <feComposite in2="SourceAlpha" operator="in" result="effect1_backgroundBlur_1728_4506"/>
      <feBlend in="SourceGraphic" in2="effect1_backgroundBlur_1728_4506" result="shape"/>
    </filter>
  </defs>
</svg>
