<svg xmlns="http://www.w3.org/2000/svg" width="648" height="557" fill="none" viewBox="0 0 648 557">
  <g clip-path="url(#a)">
    <path fill="url(#b)" d="M0 214.314v134.533c0 2.026.769 3.977 2.152 5.458l30.696 32.89A7.999 7.999 0 0 1 35 392.653V483a8 8 0 0 0 8 8h137.686a8 8 0 0 0 5.657-2.343l38.314-38.314a8 8 0 0 1 5.657-2.343h153.872a8 8 0 0 1 5.657 2.343l104.314 104.314a8 8 0 0 0 5.657 2.343H636.5a8 8 0 0 0 8-8V102.5a8 8 0 0 0-8-8H333.603a8 8 0 0 1-5.394-2.092L229.291 2.092A8 8 0 0 0 223.897 0H43a8 8 0 0 0-8 8v164.686a8 8 0 0 1-2.343 5.657L2.343 208.657A8 8 0 0 0 0 214.314Z"/>
    <path fill="#070707" fill-rule="evenodd" d="M1 348.845V214.316a7 7 0 0 1 2.052-4.952l30.337-30.313a9 9 0 0 0 2.638-6.367V85h-1v87.684a8.003 8.003 0 0 1-2.345 5.66L2.345 208.656A8.003 8.003 0 0 0 0 214.316v134.529c0 2.027.77 3.979 2.154 5.461l30.72 32.888a8.002 8.002 0 0 1 2.153 5.461V483a8 8 0 0 0 8 8h137.804a8.002 8.002 0 0 0 5.655-2.341l38.347-38.318a8 8 0 0 1 5.655-2.341h154.001a8 8 0 0 1 5.654 2.341l104.399 104.318a8.002 8.002 0 0 0 5.655 2.341H637a8 8 0 0 0 8-8V227h-1v322a7 7 0 0 1-7 7H500.197a7.002 7.002 0 0 1-4.948-2.048L390.85 449.634a8.997 8.997 0 0 0-6.361-2.634H230.488a8.995 8.995 0 0 0-6.361 2.634l-38.348 38.318a7.004 7.004 0 0 1-4.948 2.048H43.027a7 7 0 0 1-7-7v-90.345a8.997 8.997 0 0 0-2.423-6.143l-30.72-32.889A6.999 6.999 0 0 1 1 348.845ZM644 189h1v-86.5a8 8 0 0 0-8-8H428v1h209a7 7 0 0 1 7 7V189ZM333.857 94.5H344v1h-10.143a8.999 8.999 0 0 1-6.065-2.351l-98.999-90.32A7 7 0 0 0 224.075 1H43.027a7 7 0 0 0-7 7v40h-1V8a8 8 0 0 1 8-8h181.048a8 8 0 0 1 5.392 2.09l98.999 90.32a7.996 7.996 0 0 0 5.391 2.09Z" clip-rule="evenodd"/>
    <path fill="#070707" d="M35.085 84.616a.5.5 0 0 1 .83 0l2.091 3.105a.5.5 0 0 1-.414.779h-4.184a.5.5 0 0 1-.414-.78l2.091-3.104Zm312.299 9.969a.5.5 0 0 1 0 .83l-3.105 2.091a.5.5 0 0 1-.779-.415V92.91a.5.5 0 0 1 .779-.415l3.105 2.091Zm297.531 94.799a.5.5 0 0 1-.83 0l-2.091-3.105a.5.5 0 0 1 .415-.779h4.182a.5.5 0 0 1 .415.779l-2.091 3.105Z"/>
  </g>
  <defs>
    <linearGradient id="b" x1="0" x2="644.5" y1="278.5" y2="278.5" gradientUnits="userSpaceOnUse">
      <stop stop-color="#FFE7CB" stop-opacity=".2"/>
      <stop offset="1" stop-color="#fff" stop-opacity=".1"/>
    </linearGradient>
    <clipPath id="a">
      <path fill="#fff" d="M0 0h648v557H0z"/>
    </clipPath>
  </defs>
</svg>
