<svg xmlns="http://www.w3.org/2000/svg" width="45" height="5" fill="none" viewBox="0 0 45 5">
  <path fill="#FCF3F2" d="M34.364 2.469h-4.909L31.378.535a.75.75 0 0 1 1.063 0l1.923 1.934Zm-15.546 0H13.91l1.978 1.627a.75.75 0 0 0 .953 0l1.978-1.627Zm22.092 0h-3.272l1.053-1.3a.75.75 0 0 1 1.166 0l1.053 1.3ZM25.364 2.44H22.09l1.053 1.301c.3.37.866.37 1.166 0l1.054-1.3Zm-15.545.029H6.546l1.054 1.3c.3.37.865.37 1.165 0l1.054-1.3Zm24.546 0h3.273L36.624 3.98a.75.75 0 0 1-1.246 0l-1.013-1.511ZM18.818 2.44h3.273L21.077.93a.75.75 0 0 0-1.246 0l-1.013 1.51Zm22.092.029h2.454l-.673.738a.75.75 0 0 1-1.108 0l-.673-.738Z"/>
  <path fill="#FCF3F2" d="M25.363 2.44h2.454l-.673-.738a.75.75 0 0 0-1.108 0l-.673.739Zm-15.544.029h2.454l-.672-.739a.75.75 0 0 0-1.11 0l-.672.739Zm-7.364 0h2.454l-.673-.739a.75.75 0 0 0-1.108 0l-.673.739Zm40.91 0H45l-.264-.29a.75.75 0 0 0-1.108 0l-.264.29ZM27.819 2.44h1.636l-.264.29a.75.75 0 0 1-1.108 0l-.264-.29Zm-15.546.029h1.636l-.264.29a.75.75 0 0 1-1.108 0l-.264-.29Zm-7.363 0h1.636l-.264.29a.75.75 0 0 1-1.109 0l-.263-.29Zm-4.092 0h1.636l-.264.29a.75.75 0 0 1-1.108 0l-.264-.29Zm0 0H0a.553.553 0 0 1 .818 0Z"/>
</svg>
